<?xml version="1.0" encoding="UTF-8"?><svg id="Laag_1" xmlns="http://www.w3.org/2000/svg" viewBox="0 0 1036 480"><defs><style>.cls-1{fill:#999;}.cls-2{fill:#b3b3b3;}.cls-3{fill:#666;}.cls-4{fill:#333;}.cls-5{fill:#ccc;}.cls-6{fill:#1a1a1a;}</style></defs><g id="TV"><rect class="cls-6" x="213.58" y="61.26" width="616.77" height="356.85"/><rect class="cls-4" x="195.33" y="436.36" width="653.28" height="2.52"/><rect class="cls-5" x="195.33" y="40.49" width="653.28" height="2.52"/><path class="cls-2" d="m192.81,43.01h2.52v-2.52c-.42.42-.84.84-1.26,1.26s-.84.84-1.26,1.26Z"/><path class="cls-3" d="m192.81,436.36h2.52v2.52c-.42-.42-.84-.84-1.26-1.26s-.84-.84-1.26-1.26Z"/><rect class="cls-1" x="192.81" y="43.01" width="2.52" height="393.35"/><path class="cls-3" d="m832.87,58.74c-.42.42-.84.84-1.26,1.26-.42.42-.84.84-1.26,1.26H213.58c-.42-.42-.84-.84-1.26-1.26-.42-.42-.84-.84-1.26-1.26h621.81Z"/><path class="cls-5" d="m832.87,420.62H211.07c.42-.42.84-.84,1.26-1.26.42-.42.84-.84,1.26-1.26h616.77c.42.42.84.84,1.26,1.26.42.42.84.84,1.26,1.26Z"/><path class="cls-1" d="m832.87,58.74v361.88c-.42-.42-.84-.84-1.26-1.26-.42-.42-.84-.84-1.26-1.26V61.26c.42-.42.84-.84,1.26-1.26.42-.42.84-.84,1.26-1.26Z"/><path class="cls-1" d="m213.58,61.26v356.85c-.42.42-.84.84-1.26,1.26-.42.42-.84.84-1.26,1.26V58.74c.42.42.84.84,1.26,1.26.42.42.84.84,1.26,1.26Z"/><path class="cls-2" d="m848.61,40.49v2.52h2.52c-.42-.42-.84-.84-1.26-1.26s-.84-.84-1.26-1.26Z"/><path class="cls-3" d="m848.61,438.87v-2.52h2.52c-.42.42-.84.84-1.26,1.26s-.84.84-1.26,1.26Z"/><rect class="cls-1" x="848.61" y="43.01" width="2.52" height="393.35"/><path class="cls-6" d="m195.33,43.01v377.62h-.06v15.73h653.34V43.01H195.33Zm637.54,377.62H211.07V58.74h621.81v361.88Z"/></g></svg>