<?xml version="1.0" encoding="UTF-8"?><svg id="Laag_1" xmlns="http://www.w3.org/2000/svg" viewBox="0 0 1036 480"><defs><style>.cls-1{fill:#fff;}.cls-2{fill:#999;}.cls-3{fill:#b3b3b3;}.cls-4{fill:#666;}.cls-5{fill:#333;}.cls-6{fill:#ccc;}</style></defs><g id="Kast"><rect class="cls-1" x="119.38" y="42.38" width="797.32" height="25.17"/><rect class="cls-1" x="119.25" y="412.44" width="797.32" height="25.17"/><rect class="cls-1" x="119.25" y="227.41" width="797.32" height="25.17"/><rect class="cls-1" x="891.53" y="42.38" width="25.17" height="395.24"/><rect class="cls-1" x="119.3" y="42.38" width="25.17" height="395.24"/><rect class="cls-1" x="501.95" y="42.38" width="25.17" height="395.24"/><rect class="cls-1" x="310.63" y="42.38" width="25.17" height="395.24"/><rect class="cls-1" x="696.42" y="42.38" width="25.17" height="395.24"/><g id="Schaduw_kast_buiten"><rect class="cls-6" x="119.3" y="37.35" width="797.4" height="5.03"/><path class="cls-3" d="m916.7,37.35v5.03h5.03c-.84-.84-1.68-1.68-2.52-2.52s-1.68-1.68-2.52-2.52Z"/><rect class="cls-2" x="916.7" y="42.38" width="5.03" height="395.24"/><rect class="cls-5" x="119.3" y="437.62" width="797.4" height="5.03"/><path class="cls-4" d="m916.7,442.65v-5.03h5.03c-.84.84-1.68,1.68-2.52,2.52s-1.68,1.68-2.52,2.52Z"/><path class="cls-3" d="m114.27,42.38h5.03v-5.03c-.84.84-1.68,1.68-2.52,2.52s-1.68,1.68-2.52,2.52Z"/><path class="cls-4" d="m114.27,437.62h5.03v5.03c-.84-.84-1.68-1.68-2.52-2.52s-1.68-1.68-2.52-2.52Z"/><rect class="cls-2" x="114.27" y="42.38" width="5.03" height="395.24"/></g><g id="Schaduw_kast_binnen"><polygon class="cls-2" points="310.63 67.56 310.63 227.41 305.79 222.38 305.59 222.17 305.59 72.8 305.79 72.59 310.63 67.56"/><polygon class="cls-2" points="149.51 72.8 149.51 222.17 149.31 222.38 144.47 227.41 144.47 67.56 149.31 72.59 149.51 72.8"/><polygon class="cls-4" points="233.84 67.56 221.26 67.56 144.47 67.56 149.31 72.59 221.26 72.59 233.84 72.59 305.79 72.59 310.63 67.56 233.84 67.56"/><polygon class="cls-6" points="305.79 222.38 233.84 222.38 221.26 222.38 149.31 222.38 144.47 227.41 221.26 227.41 233.84 227.41 310.63 227.41 305.79 222.38"/></g><g id="Schaduw_kast_binnen-2"><polygon class="cls-2" points="501.95 67.56 501.95 227.41 497.11 222.38 496.92 222.17 496.92 72.8 497.11 72.59 501.95 67.56"/><polygon class="cls-2" points="340.83 72.8 340.83 222.17 340.64 222.38 335.8 227.41 335.8 67.56 340.64 72.59 340.83 72.8"/><polygon class="cls-4" points="425.17 67.56 412.58 67.56 335.8 67.56 340.64 72.59 412.58 72.59 425.17 72.59 497.11 72.59 501.95 67.56 425.17 67.56"/><polygon class="cls-6" points="497.11 222.38 425.17 222.38 412.58 222.38 340.64 222.38 335.8 227.41 412.58 227.41 425.17 227.41 501.95 227.41 497.11 222.38"/></g><g id="Schaduw_kast_binnen-3"><polygon class="cls-2" points="696.42 67.56 696.42 227.41 691.58 222.38 691.39 222.17 691.39 72.8 691.58 72.59 696.42 67.56"/><polygon class="cls-2" points="532.16 72.8 532.16 222.17 531.97 222.38 527.13 227.41 527.13 67.56 531.97 72.59 532.16 72.8"/><polygon class="cls-4" points="613.35 67.56 610.2 67.56 527.13 67.56 531.97 72.59 610.2 72.59 613.35 72.59 691.58 72.59 696.42 67.56 613.35 67.56"/><polygon class="cls-6" points="691.58 222.38 613.35 222.38 610.2 222.38 531.97 222.38 527.13 227.41 610.2 227.41 613.35 227.41 696.42 227.41 691.58 222.38"/></g><g id="Schaduw_kast_binnen-4"><polygon class="cls-2" points="890.9 67.56 890.9 227.41 886.06 222.38 885.86 222.17 885.86 72.8 886.06 72.59 890.9 67.56"/><polygon class="cls-2" points="726.63 72.8 726.63 222.17 726.44 222.38 721.6 227.41 721.6 67.56 726.44 72.59 726.63 72.8"/><polygon class="cls-4" points="807.82 67.56 804.67 67.56 721.6 67.56 726.44 72.59 804.67 72.59 807.82 72.59 886.06 72.59 890.9 67.56 807.82 67.56"/><polygon class="cls-6" points="886.06 222.38 807.82 222.38 804.67 222.38 726.44 222.38 721.6 227.41 804.67 227.41 807.82 227.41 890.9 227.41 886.06 222.38"/></g><g id="Schaduw_kast_binnen-5"><polygon class="cls-2" points="310.63 252.59 310.63 412.44 305.79 407.41 305.59 407.2 305.59 257.83 305.79 257.62 310.63 252.59"/><polygon class="cls-2" points="149.51 257.83 149.51 407.2 149.31 407.41 144.47 412.44 144.47 252.59 149.31 257.62 149.51 257.83"/><polygon class="cls-4" points="233.84 252.59 221.26 252.59 144.47 252.59 149.31 257.62 221.26 257.62 233.84 257.62 305.79 257.62 310.63 252.59 233.84 252.59"/><polygon class="cls-6" points="305.79 407.41 233.84 407.41 221.26 407.41 149.31 407.41 144.47 412.44 221.26 412.44 233.84 412.44 310.63 412.44 305.79 407.41"/></g><g id="Schaduw_kast_binnen-6"><polygon class="cls-2" points="501.95 252.59 501.95 412.44 497.11 407.41 496.92 407.2 496.92 257.83 497.11 257.62 501.95 252.59"/><polygon class="cls-2" points="340.83 257.83 340.83 407.2 340.64 407.41 335.8 412.44 335.8 252.59 340.64 257.62 340.83 257.83"/><polygon class="cls-4" points="425.17 252.59 412.58 252.59 335.8 252.59 340.64 257.62 412.58 257.62 425.17 257.62 497.11 257.62 501.95 252.59 425.17 252.59"/><polygon class="cls-6" points="497.11 407.41 425.17 407.41 412.58 407.41 340.64 407.41 335.8 412.44 412.58 412.44 425.17 412.44 501.95 412.44 497.11 407.41"/></g><g id="Schaduw_kast_binnen-7"><polygon class="cls-2" points="696.42 252.59 696.42 412.44 691.58 407.41 691.39 407.2 691.39 257.83 691.58 257.62 696.42 252.59"/><polygon class="cls-2" points="532.16 257.83 532.16 407.2 531.97 407.41 527.13 412.44 527.13 252.59 531.97 257.62 532.16 257.83"/><polygon class="cls-4" points="613.35 252.59 610.2 252.59 527.13 252.59 531.97 257.62 610.2 257.62 613.35 257.62 691.58 257.62 696.42 252.59 613.35 252.59"/><polygon class="cls-6" points="691.58 407.41 613.35 407.41 610.2 407.41 531.97 407.41 527.13 412.44 610.2 412.44 613.35 412.44 696.42 412.44 691.58 407.41"/></g><g id="Schaduw_kast_binnen-8"><polygon class="cls-2" points="890.9 252.59 890.9 412.44 886.06 407.41 885.86 407.2 885.86 257.83 886.06 257.62 890.9 252.59"/><polygon class="cls-2" points="726.63 257.83 726.63 407.2 726.44 407.41 721.6 412.44 721.6 252.59 726.44 257.62 726.63 257.83"/><polygon class="cls-4" points="807.82 252.59 804.67 252.59 721.6 252.59 726.44 257.62 804.67 257.62 807.82 257.62 886.06 257.62 890.9 252.59 807.82 252.59"/><polygon class="cls-6" points="886.06 407.41 807.82 407.41 804.67 407.41 726.44 407.41 721.6 412.44 804.67 412.44 807.82 412.44 890.9 412.44 886.06 407.41"/></g></g></svg>